<!--?xml version="1.0" encoding="utf-8"?-->
<!-- Generator: Adobe Illustrator 18.1.1, SVG Export Plug-In . SVG Version: 6.00 Build 0)  -->

<svg version="1.1" id="_x32_" xmlns="http://www.w3.org/2000/svg" xmlns:xlink="http://www.w3.org/1999/xlink" x="0px" y="0px" viewBox="0 0 512 512" style="width: 256px; height: 256px; opacity: 1;" xml:space="preserve">
<style type="text/css">
	.st0{fill:#4B4B4B;}
</style>
<g>
	<path class="st0" d="M512,195.485c0-56.547-45.843-102.389-102.399-102.389c-16.303,0-31.699,3.818-45.375,10.59
		C342.35,66.705,302.089,41.892,256,41.892c-46.09,0-86.35,24.812-108.226,61.793c-13.676-6.772-29.08-10.59-45.375-10.59
		C45.842,93.096,0,138.938,0,195.485c0,56.565,45.842,102.407,102.398,102.407c0.353,0,0.696-0.026,1.049-0.026
		c-14.998,40.79-31.302,94.277-31.302,172.242h367.71c0-77.965-16.303-131.452-31.302-172.242c0.353,0,0.697,0.026,1.049,0.026
		C466.157,297.892,512,252.05,512,195.485z" style="fill: rgb(51, 51, 51);"></path>
</g>
</svg>
